# xmcd
# 
# Track frame offsets:
#     150
#     14745
#     26697
#     38885
#     54708
#     67571
#     82007
#     95971
#     108124
#     120791
#     133014
#     147540
#     159731
#     174118
# 
# Disc length: 2496
# 
# Revision: 0
# Processed by: cddbd v1.5.2PL0 Copyright (c) Steve Scherf et al.
# Submitted via: fre:ac v1.0.31
# 
DISCID=b909be0e
DTITLE=Cathy Miller - In The Heart Of A Quilt
DYEAR=2006
DGENRE=Folk
TTITLE0=One Pot of Soup
TTITLE1=Why Don't You Have Plain White?
TTITLE2=Shop Hopping
TTITLE3=The Duck Neck Quilt
TTITLE4=How Do You Build a House?
TTITLE5=Boots and Bayonets
TTITLE6=My Grandfather's Brother
TTITLE7=Done Is Better Than Perfect
TTITLE8=The Quilt Teacher's Life
TTITLE9=Paducah
TTITLE10=In The Heart of a Quilt
TTITLE11=No Such Thing as an Ugly Quilt
TTITLE12=Like Needle and Thread
TTITLE13=Masterpiece
EXTD=
EXTT0=
EXTT1=
EXTT2=
EXTT3=
EXTT4=
EXTT5=
EXTT6=
EXTT7=
EXTT8=
EXTT9=
EXTT10=
EXTT11=
EXTT12=
EXTT13=
PLAYORDER=
